<?xml version="1.0" encoding="utf-8"?>
<!-- Generator: Adobe Illustrator 17.1.0, SVG Export Plug-In . SVG Version: 6.00 Build 0)  -->
<!DOCTYPE svg PUBLIC "-//W3C//DTD SVG 1.1//EN" "http://www.w3.org/Graphics/SVG/1.1/DTD/svg11.dtd">
<svg version="1.1" id="Layer_1" xmlns="http://www.w3.org/2000/svg" xmlns:xlink="http://www.w3.org/1999/xlink" x="0px" y="0px"
	 viewBox="0 0 160 57.7" enable-background="new 0 0 160 57.7" xml:space="preserve">
<g>
	<g>
		<path fill="#FFFFFF" d="M72.8,28.3c0,3.6-2.3,7.2-7.1,7.2h-4v4.2h-4.5V21.2h8.5C70.6,21.2,72.8,24.7,72.8,28.3z M61.8,25.3v6.1
			h3.5c1.8,0,3-1.1,3-3.1c0-2-1.2-3-3-3H61.8z"/>
		<path fill="#FFFFFF" d="M80.2,35.5h9.7v4.1H75.7V21.2h4.5V35.5z"/>
		<path fill="#FFFFFF" d="M106.9,36.8H98l-1.2,2.9H92l7.9-18.5h5l7.9,18.5h-4.8L106.9,36.8z M105.3,33.1l-2.9-6.9l-2.9,6.9H105.3z"
			/>
		<path fill="#FFFFFF" d="M122.2,32.7v7h-4.5v-7l-7.9-11.5h5.1l5,7.6l5-7.6h5.2L122.2,32.7z"/>
		<path fill="#FFFFFF" d="M137.8,39.7h-4.5V21.2h4.5V39.7z"/>
		<path fill="#FFFFFF" d="M160,39.7h-4.5l-9.4-11.3v11.3h-4.5V21.2h4.5l9.4,11.3V21.2h4.5V39.7z"/>
	</g>
	<g>
		<path fill="#FFFFFF" d="M37.8,25.3v5.6h3.8c1.5,0,2.7-1.3,2.7-2.8c0-1.5-1.2-2.8-2.7-2.8H37.8z"/>
		<path fill="#FFFFFF" d="M41.1,35.1h-3.3v4.6h-4.5V21.2h9c3.8,0,6.6,2.9,6.6,6.9c0,2.7-1.3,4.9-3.3,6l2.5,3.7l9.6-16.5L21.3,0
			L0,36.4l36.4,21.3l9-15.4L41.1,35.1z M22.7,39.7h-4.9L9.6,21.2h4.9l5.7,13.2L26,21.2h4.9L22.7,39.7z"/>
	</g>
</g>
</svg>
